# xmcd CD database file
#
# Track frame offsets:
#	182
#	13712
#	26785
#	39745
#	53762
#	68185
#	80890
#	91675
#	104597
#	118942
#	131950
#	143997
#	158790
#	172287
#
# Disc length: 2470 seconds
#
# Revision: 0
# Processed by: cddbd v1.4PL0 Copyright (c) Steve Scherf et al.
# Submitted via: CDex 1.50
#
DISCID=d009a40e
DTITLE=Various Artist - Frank Stokes' Dream: The Memphis Blues 1927-1931
DYEAR=1991
DGENRE=Blues
TTITLE0=Labour Blues - Tom Dickson (1938)
TTITLE1=Frank Stokes' Dream - Frank Stokes (1929)
TTITLE2='Frisco Town - Memphis Minnie and Kansas Joe (1929)
TTITLE3=Twelve Pound Daddy - Pearl Dickson (1927)
TTITLE4=Take Me Back - Frank Stokes (1928)
TTITLE5=Black Gipsy Blues - Furry Lewis (1928)
TTITLE6=I Don't Want That Junk Outta You - Memphis Minnie (1931)
TTITLE7=Devil In The Woodpile - Noah Lewis (1929)
TTITLE8=I Will Turn Your Money Green - Furry Lewis (1928)
TTITLE9=Noah's Blues - Cannon's Jug Stompers (1928)
TTITLE10=Creeper's Blues - Furry Lewis (1928)
TTITLE11=Turpentine Blues - Will Weldon (1927)
TTITLE12=Judge Harsh Blues - Furry Lewis (1928)
TTITLE13=Last Go Round - Frank Stokes (1927)
EXTD=YEAR: 1991
EXTT0=
EXTT1=
EXTT2=
EXTT3=
EXTT4=
EXTT5=
EXTT6=
EXTT7=
EXTT8=
EXTT9=
EXTT10=
EXTT11=
EXTT12=
EXTT13=
PLAYORDER=
